<mxfile host="drawio-plugin" modified="2025-02-24T13:41:41.820Z" agent="5.0 (Windows NT 6.2; Win64; x64) AppleWebKit/537.36 (KHTML, like Gecko) Chrome/89.0.4389.114 Safari/537.36" etag="DKrAX0jEigjPD_GUya1S" version="20.5.3" type="embed" pages="5"><diagram id="PDdm4LYdHplyjlYsy8n4" name="入站消息"><mxGraphModel dx="2036" dy="639" grid="1" gridSize="10" guides="1" tooltips="1" connect="1" arrows="1" fold="1" page="1" pageScale="1" pageWidth="850" pageHeight="1100" math="0" shadow="0"><root><mxCell id="0"/><mxCell id="1" parent="0"/><mxCell id="8kpK-hT3R2jEai4biR_k-1" value="服务端" style="swimlane;whiteSpace=wrap;html=1;startSize=23;" parent="1" vertex="1"><mxGeometry x="414" y="240" width="1606" height="2480" as="geometry"/></mxCell><mxCell id="O4QeAjEl9ZoxxgIogJ_r-10" value="" style="edgeStyle=orthogonalEdgeStyle;rounded=0;orthogonalLoop=1;jettySize=auto;html=1;" parent="8kpK-hT3R2jEai4biR_k-1" source="8kpK-hT3R2jEai4biR_k-6" target="O4QeAjEl9ZoxxgIogJ_r-9" edge="1"><mxGeometry relative="1" as="geometry"/></mxCell><mxCell id="8kpK-hT3R2jEai4biR_k-6" value="收到pubrel消息" style="rounded=1;whiteSpace=wrap;html=1;" parent="8kpK-hT3R2jEai4biR_k-1" vertex="1"><mxGeometry x="389.99999999999955" y="1655" width="120" height="60" as="geometry"/></mxCell><mxCell id="8kpK-hT3R2jEai4biR_k-9" value="结束" style="rounded=1;whiteSpace=wrap;html=1;" parent="8kpK-hT3R2jEai4biR_k-1" vertex="1"><mxGeometry x="1376" y="460" width="120" height="60" as="geometry"/></mxCell><mxCell id="8kpK-hT3R2jEai4biR_k-10" value="qos=1" style="edgeStyle=orthogonalEdgeStyle;rounded=0;orthogonalLoop=1;jettySize=auto;html=1;" parent="8kpK-hT3R2jEai4biR_k-1" source="8kpK-hT3R2jEai4biR_k-11" target="8kpK-hT3R2jEai4biR_k-14" edge="1"><mxGeometry relative="1" as="geometry"/></mxCell><mxCell id="8kpK-hT3R2jEai4biR_k-66" value="qps=0" style="edgeStyle=orthogonalEdgeStyle;rounded=0;orthogonalLoop=1;jettySize=auto;html=1;entryX=0.5;entryY=0;entryDx=0;entryDy=0;" parent="8kpK-hT3R2jEai4biR_k-1" source="8kpK-hT3R2jEai4biR_k-11" target="8kpK-hT3R2jEai4biR_k-9" edge="1"><mxGeometry relative="1" as="geometry"><mxPoint x="874" y="350" as="targetPoint"/></mxGeometry></mxCell><mxCell id="8kpK-hT3R2jEai4biR_k-11" value="增加分发消息的异步任务" style="rounded=1;whiteSpace=wrap;html=1;" parent="8kpK-hT3R2jEai4biR_k-1" vertex="1"><mxGeometry x="650" y="320" width="120" height="60" as="geometry"/></mxCell><mxCell id="8kpK-hT3R2jEai4biR_k-13" value="否" style="edgeStyle=orthogonalEdgeStyle;rounded=0;orthogonalLoop=1;jettySize=auto;html=1;" parent="8kpK-hT3R2jEai4biR_k-1" source="8kpK-hT3R2jEai4biR_k-14" target="8kpK-hT3R2jEai4biR_k-18" edge="1"><mxGeometry relative="1" as="geometry"/></mxCell><mxCell id="8kpK-hT3R2jEai4biR_k-68" value="是" style="edgeStyle=orthogonalEdgeStyle;rounded=0;orthogonalLoop=1;jettySize=auto;html=1;entryX=0.447;entryY=-0.007;entryDx=0;entryDy=0;entryPerimeter=0;" parent="8kpK-hT3R2jEai4biR_k-1" source="8kpK-hT3R2jEai4biR_k-14" target="8kpK-hT3R2jEai4biR_k-16" edge="1"><mxGeometry relative="1" as="geometry"/></mxCell><mxCell id="8kpK-hT3R2jEai4biR_k-14" value="发送puback；发送puback是否成功" style="rounded=1;whiteSpace=wrap;html=1;" parent="8kpK-hT3R2jEai4biR_k-1" vertex="1"><mxGeometry x="650" y="460" width="120" height="60" as="geometry"/></mxCell><mxCell id="8kpK-hT3R2jEai4biR_k-15" style="edgeStyle=orthogonalEdgeStyle;rounded=0;orthogonalLoop=1;jettySize=auto;html=1;entryX=0.5;entryY=1;entryDx=0;entryDy=0;" parent="8kpK-hT3R2jEai4biR_k-1" source="8kpK-hT3R2jEai4biR_k-16" target="8kpK-hT3R2jEai4biR_k-9" edge="1"><mxGeometry relative="1" as="geometry"/></mxCell><mxCell id="8kpK-hT3R2jEai4biR_k-16" value="提交事务" style="rounded=1;whiteSpace=wrap;html=1;" parent="8kpK-hT3R2jEai4biR_k-1" vertex="1"><mxGeometry x="656" y="600" width="120" height="60" as="geometry"/></mxCell><mxCell id="8kpK-hT3R2jEai4biR_k-67" style="edgeStyle=orthogonalEdgeStyle;rounded=0;orthogonalLoop=1;jettySize=auto;html=1;entryX=0;entryY=0.5;entryDx=0;entryDy=0;" parent="8kpK-hT3R2jEai4biR_k-1" source="8kpK-hT3R2jEai4biR_k-18" target="8kpK-hT3R2jEai4biR_k-9" edge="1"><mxGeometry relative="1" as="geometry"/></mxCell><mxCell id="8kpK-hT3R2jEai4biR_k-18" value="回滚事务" style="rounded=1;whiteSpace=wrap;html=1;" parent="8kpK-hT3R2jEai4biR_k-1" vertex="1"><mxGeometry x="874" y="460" width="120" height="60" as="geometry"/></mxCell><mxCell id="8kpK-hT3R2jEai4biR_k-19" value="" style="edgeStyle=orthogonalEdgeStyle;rounded=0;orthogonalLoop=1;jettySize=auto;html=1;" parent="8kpK-hT3R2jEai4biR_k-1" source="8kpK-hT3R2jEai4biR_k-20" target="8kpK-hT3R2jEai4biR_k-23" edge="1"><mxGeometry relative="1" as="geometry"/></mxCell><mxCell id="8kpK-hT3R2jEai4biR_k-20" value="存入收到的qos=2的消息表" style="rounded=1;whiteSpace=wrap;html=1;" parent="8kpK-hT3R2jEai4biR_k-1" vertex="1"><mxGeometry x="450" y="180" width="120" height="60" as="geometry"/></mxCell><mxCell id="8kpK-hT3R2jEai4biR_k-21" value="是" style="edgeStyle=orthogonalEdgeStyle;rounded=0;orthogonalLoop=1;jettySize=auto;html=1;" parent="8kpK-hT3R2jEai4biR_k-1" source="8kpK-hT3R2jEai4biR_k-23" target="8kpK-hT3R2jEai4biR_k-25" edge="1"><mxGeometry relative="1" as="geometry"/></mxCell><mxCell id="8kpK-hT3R2jEai4biR_k-22" value="否" style="edgeStyle=orthogonalEdgeStyle;rounded=0;orthogonalLoop=1;jettySize=auto;html=1;" parent="8kpK-hT3R2jEai4biR_k-1" source="8kpK-hT3R2jEai4biR_k-23" target="8kpK-hT3R2jEai4biR_k-27" edge="1"><mxGeometry relative="1" as="geometry"/></mxCell><mxCell id="8kpK-hT3R2jEai4biR_k-23" value="是否唯一索引冲突" style="rounded=1;whiteSpace=wrap;html=1;" parent="8kpK-hT3R2jEai4biR_k-1" vertex="1"><mxGeometry x="450" y="320" width="120" height="60" as="geometry"/></mxCell><mxCell id="8kpK-hT3R2jEai4biR_k-24" style="edgeStyle=orthogonalEdgeStyle;rounded=0;orthogonalLoop=1;jettySize=auto;html=1;entryX=0.5;entryY=1;entryDx=0;entryDy=0;" parent="8kpK-hT3R2jEai4biR_k-1" source="8kpK-hT3R2jEai4biR_k-25" target="8kpK-hT3R2jEai4biR_k-9" edge="1"><mxGeometry relative="1" as="geometry"><Array as="points"><mxPoint x="510" y="830"/><mxPoint x="1436" y="830"/></Array></mxGeometry></mxCell><mxCell id="8kpK-hT3R2jEai4biR_k-25" value="发送pubrec" style="rounded=1;whiteSpace=wrap;html=1;" parent="8kpK-hT3R2jEai4biR_k-1" vertex="1"><mxGeometry x="450" y="460" width="120" height="60" as="geometry"/></mxCell><mxCell id="8kpK-hT3R2jEai4biR_k-26" value="" style="edgeStyle=orthogonalEdgeStyle;rounded=0;orthogonalLoop=1;jettySize=auto;html=1;" parent="8kpK-hT3R2jEai4biR_k-1" source="8kpK-hT3R2jEai4biR_k-27" target="8kpK-hT3R2jEai4biR_k-30" edge="1"><mxGeometry relative="1" as="geometry"/></mxCell><mxCell id="8kpK-hT3R2jEai4biR_k-27" value="发送PUBREC报文" style="rounded=1;whiteSpace=wrap;html=1;" parent="8kpK-hT3R2jEai4biR_k-1" vertex="1"><mxGeometry x="250" y="320" width="120" height="60" as="geometry"/></mxCell><mxCell id="8kpK-hT3R2jEai4biR_k-28" value="是" style="edgeStyle=orthogonalEdgeStyle;rounded=0;orthogonalLoop=1;jettySize=auto;html=1;" parent="8kpK-hT3R2jEai4biR_k-1" source="8kpK-hT3R2jEai4biR_k-30" target="8kpK-hT3R2jEai4biR_k-32" edge="1"><mxGeometry relative="1" as="geometry"/></mxCell><mxCell id="8kpK-hT3R2jEai4biR_k-29" value="" style="edgeStyle=orthogonalEdgeStyle;rounded=0;orthogonalLoop=1;jettySize=auto;html=1;" parent="8kpK-hT3R2jEai4biR_k-1" source="8kpK-hT3R2jEai4biR_k-30" target="8kpK-hT3R2jEai4biR_k-34" edge="1"><mxGeometry relative="1" as="geometry"/></mxCell><mxCell id="8kpK-hT3R2jEai4biR_k-30" value="发送pubrec；发送pubrec&lt;br&gt;是否成功" style="rounded=1;whiteSpace=wrap;html=1;" parent="8kpK-hT3R2jEai4biR_k-1" vertex="1"><mxGeometry x="250" y="460" width="120" height="60" as="geometry"/></mxCell><mxCell id="8kpK-hT3R2jEai4biR_k-31" style="edgeStyle=orthogonalEdgeStyle;rounded=0;orthogonalLoop=1;jettySize=auto;html=1;entryX=0.5;entryY=1;entryDx=0;entryDy=0;" parent="8kpK-hT3R2jEai4biR_k-1" source="8kpK-hT3R2jEai4biR_k-32" target="8kpK-hT3R2jEai4biR_k-9" edge="1"><mxGeometry relative="1" as="geometry"><Array as="points"><mxPoint x="310" y="890"/><mxPoint x="1436" y="890"/></Array></mxGeometry></mxCell><mxCell id="8kpK-hT3R2jEai4biR_k-32" value="提交事务" style="rounded=1;whiteSpace=wrap;html=1;" parent="8kpK-hT3R2jEai4biR_k-1" vertex="1"><mxGeometry x="250" y="600" width="120" height="60" as="geometry"/></mxCell><mxCell id="8kpK-hT3R2jEai4biR_k-33" style="edgeStyle=orthogonalEdgeStyle;rounded=0;orthogonalLoop=1;jettySize=auto;html=1;entryX=0.5;entryY=1;entryDx=0;entryDy=0;" parent="8kpK-hT3R2jEai4biR_k-1" source="8kpK-hT3R2jEai4biR_k-34" target="8kpK-hT3R2jEai4biR_k-9" edge="1"><mxGeometry relative="1" as="geometry"><Array as="points"><mxPoint x="110" y="950"/><mxPoint x="1436" y="950"/></Array></mxGeometry></mxCell><mxCell id="8kpK-hT3R2jEai4biR_k-34" value="回滚事务" style="rounded=1;whiteSpace=wrap;html=1;" parent="8kpK-hT3R2jEai4biR_k-1" vertex="1"><mxGeometry x="50" y="460" width="120" height="60" as="geometry"/></mxCell><mxCell id="8kpK-hT3R2jEai4biR_k-36" value="qos=2" style="edgeStyle=orthogonalEdgeStyle;rounded=0;orthogonalLoop=1;jettySize=auto;html=1;" parent="8kpK-hT3R2jEai4biR_k-1" source="8kpK-hT3R2jEai4biR_k-37" target="8kpK-hT3R2jEai4biR_k-20" edge="1"><mxGeometry relative="1" as="geometry"/></mxCell><mxCell id="8kpK-hT3R2jEai4biR_k-64" value="" style="edgeStyle=orthogonalEdgeStyle;rounded=0;orthogonalLoop=1;jettySize=auto;html=1;" parent="8kpK-hT3R2jEai4biR_k-1" source="8kpK-hT3R2jEai4biR_k-37" target="8kpK-hT3R2jEai4biR_k-11" edge="1"><mxGeometry relative="1" as="geometry"/></mxCell><mxCell id="8kpK-hT3R2jEai4biR_k-37" value="收到publish消息" style="rounded=1;whiteSpace=wrap;html=1;" parent="8kpK-hT3R2jEai4biR_k-1" vertex="1"><mxGeometry x="650" y="180" width="120" height="60" as="geometry"/></mxCell><mxCell id="tniEplMel7iOgbVtoTHJ-2" value="" style="edgeStyle=orthogonalEdgeStyle;rounded=0;orthogonalLoop=1;jettySize=auto;html=1;" parent="8kpK-hT3R2jEai4biR_k-1" source="8kpK-hT3R2jEai4biR_k-57" target="tniEplMel7iOgbVtoTHJ-1" edge="1"><mxGeometry relative="1" as="geometry"/></mxCell><mxCell id="8kpK-hT3R2jEai4biR_k-57" value="发送pubcomp" style="rounded=1;whiteSpace=wrap;html=1;" parent="8kpK-hT3R2jEai4biR_k-1" vertex="1"><mxGeometry x="589.9999999999995" y="1930" width="120" height="60" as="geometry"/></mxCell><mxCell id="tniEplMel7iOgbVtoTHJ-5" value="" style="edgeStyle=orthogonalEdgeStyle;rounded=0;orthogonalLoop=1;jettySize=auto;html=1;" parent="8kpK-hT3R2jEai4biR_k-1" source="8kpK-hT3R2jEai4biR_k-59" target="tniEplMel7iOgbVtoTHJ-4" edge="1"><mxGeometry relative="1" as="geometry"/></mxCell><mxCell id="8kpK-hT3R2jEai4biR_k-59" value="增加消息分发异步任务" style="rounded=1;whiteSpace=wrap;html=1;" parent="8kpK-hT3R2jEai4biR_k-1" vertex="1"><mxGeometry x="589.9999999999995" y="2070" width="120" height="60" as="geometry"/></mxCell><mxCell id="8kpK-hT3R2jEai4biR_k-61" value="是" style="edgeStyle=orthogonalEdgeStyle;rounded=0;jumpStyle=arc;orthogonalLoop=1;jettySize=auto;html=1;" parent="8kpK-hT3R2jEai4biR_k-1" source="8kpK-hT3R2jEai4biR_k-63" target="8kpK-hT3R2jEai4biR_k-59" edge="1"><mxGeometry relative="1" as="geometry"><Array as="points"><mxPoint x="450" y="2100"/></Array></mxGeometry></mxCell><mxCell id="8kpK-hT3R2jEai4biR_k-62" value="否" style="edgeStyle=orthogonalEdgeStyle;rounded=0;jumpStyle=arc;orthogonalLoop=1;jettySize=auto;html=1;" parent="8kpK-hT3R2jEai4biR_k-1" source="8kpK-hT3R2jEai4biR_k-63" target="8kpK-hT3R2jEai4biR_k-57" edge="1"><mxGeometry relative="1" as="geometry"/></mxCell><mxCell id="8kpK-hT3R2jEai4biR_k-63" value="删除receive_qos2_message对应记录；是否成功删除" style="rounded=1;whiteSpace=wrap;html=1;" parent="8kpK-hT3R2jEai4biR_k-1" vertex="1"><mxGeometry x="389.99999999999955" y="1930" width="120" height="60" as="geometry"/></mxCell><mxCell id="tniEplMel7iOgbVtoTHJ-1" value="结束" style="rounded=1;whiteSpace=wrap;html=1;" parent="8kpK-hT3R2jEai4biR_k-1" vertex="1"><mxGeometry x="789.9999999999995" y="1930" width="120" height="60" as="geometry"/></mxCell><mxCell id="tniEplMel7iOgbVtoTHJ-7" value="是" style="edgeStyle=orthogonalEdgeStyle;rounded=0;orthogonalLoop=1;jettySize=auto;html=1;" parent="8kpK-hT3R2jEai4biR_k-1" source="tniEplMel7iOgbVtoTHJ-4" target="tniEplMel7iOgbVtoTHJ-6" edge="1"><mxGeometry relative="1" as="geometry"/></mxCell><mxCell id="tniEplMel7iOgbVtoTHJ-9" value="否" style="edgeStyle=orthogonalEdgeStyle;rounded=0;orthogonalLoop=1;jettySize=auto;html=1;" parent="8kpK-hT3R2jEai4biR_k-1" source="tniEplMel7iOgbVtoTHJ-4" target="tniEplMel7iOgbVtoTHJ-8" edge="1"><mxGeometry relative="1" as="geometry"/></mxCell><mxCell id="tniEplMel7iOgbVtoTHJ-4" value="发送pubcomp；发送是否成功" style="rounded=1;whiteSpace=wrap;html=1;" parent="8kpK-hT3R2jEai4biR_k-1" vertex="1"><mxGeometry x="589.9999999999995" y="2210" width="120" height="60" as="geometry"/></mxCell><mxCell id="tniEplMel7iOgbVtoTHJ-11" style="edgeStyle=orthogonalEdgeStyle;rounded=0;orthogonalLoop=1;jettySize=auto;html=1;entryX=1;entryY=0.5;entryDx=0;entryDy=0;" parent="8kpK-hT3R2jEai4biR_k-1" source="tniEplMel7iOgbVtoTHJ-6" target="tniEplMel7iOgbVtoTHJ-1" edge="1"><mxGeometry relative="1" as="geometry"/></mxCell><mxCell id="tniEplMel7iOgbVtoTHJ-6" value="提交事务" style="rounded=1;whiteSpace=wrap;html=1;" parent="8kpK-hT3R2jEai4biR_k-1" vertex="1"><mxGeometry x="589.9999999999995" y="2350" width="120" height="60" as="geometry"/></mxCell><mxCell id="tniEplMel7iOgbVtoTHJ-10" style="edgeStyle=orthogonalEdgeStyle;rounded=0;orthogonalLoop=1;jettySize=auto;html=1;" parent="8kpK-hT3R2jEai4biR_k-1" source="tniEplMel7iOgbVtoTHJ-8" target="tniEplMel7iOgbVtoTHJ-1" edge="1"><mxGeometry relative="1" as="geometry"/></mxCell><mxCell id="tniEplMel7iOgbVtoTHJ-8" value="回滚事务" style="rounded=1;whiteSpace=wrap;html=1;" parent="8kpK-hT3R2jEai4biR_k-1" vertex="1"><mxGeometry x="789.9999999999995" y="2210" width="120" height="60" as="geometry"/></mxCell><mxCell id="O4QeAjEl9ZoxxgIogJ_r-11" value="是" style="edgeStyle=orthogonalEdgeStyle;rounded=0;orthogonalLoop=1;jettySize=auto;html=1;" parent="8kpK-hT3R2jEai4biR_k-1" source="O4QeAjEl9ZoxxgIogJ_r-9" target="8kpK-hT3R2jEai4biR_k-63" edge="1"><mxGeometry relative="1" as="geometry"/></mxCell><mxCell id="O4QeAjEl9ZoxxgIogJ_r-13" value="否" style="edgeStyle=orthogonalEdgeStyle;rounded=0;orthogonalLoop=1;jettySize=auto;html=1;entryX=0.5;entryY=0;entryDx=0;entryDy=0;" parent="8kpK-hT3R2jEai4biR_k-1" source="O4QeAjEl9ZoxxgIogJ_r-9" target="8kpK-hT3R2jEai4biR_k-57" edge="1"><mxGeometry relative="1" as="geometry"/></mxCell><mxCell id="O4QeAjEl9ZoxxgIogJ_r-9" value="查询receive_qos2_message对应记录；记录是否存在" style="rounded=1;whiteSpace=wrap;html=1;" parent="8kpK-hT3R2jEai4biR_k-1" vertex="1"><mxGeometry x="389.99999999999955" y="1795" width="120" height="60" as="geometry"/></mxCell><mxCell id="8kpK-hT3R2jEai4biR_k-51" value="客户端" style="swimlane;whiteSpace=wrap;html=1;" parent="1" vertex="1"><mxGeometry x="-270" y="240" width="684" height="2480" as="geometry"/></mxCell><mxCell id="8kpK-hT3R2jEai4biR_k-52" value="发送publish消息" style="rounded=1;whiteSpace=wrap;html=1;" parent="8kpK-hT3R2jEai4biR_k-51" vertex="1"><mxGeometry x="109.99999999999955" y="90" width="120" height="60" as="geometry"/></mxCell><mxCell id="8kpK-hT3R2jEai4biR_k-53" value="发送pubrel消息" style="rounded=1;whiteSpace=wrap;html=1;" parent="8kpK-hT3R2jEai4biR_k-51" vertex="1"><mxGeometry x="99.99999999999955" y="1655" width="120" height="60" as="geometry"/></mxCell><mxCell id="8kpK-hT3R2jEai4biR_k-54" style="edgeStyle=orthogonalEdgeStyle;rounded=0;orthogonalLoop=1;jettySize=auto;html=1;entryX=0.5;entryY=0;entryDx=0;entryDy=0;" parent="1" source="8kpK-hT3R2jEai4biR_k-52" target="8kpK-hT3R2jEai4biR_k-37" edge="1"><mxGeometry relative="1" as="geometry"/></mxCell><mxCell id="8kpK-hT3R2jEai4biR_k-55" style="edgeStyle=orthogonalEdgeStyle;rounded=0;orthogonalLoop=1;jettySize=auto;html=1;entryX=0;entryY=0.5;entryDx=0;entryDy=0;" parent="1" source="8kpK-hT3R2jEai4biR_k-53" target="8kpK-hT3R2jEai4biR_k-6" edge="1"><mxGeometry relative="1" as="geometry"/></mxCell></root></mxGraphModel></diagram><diagram id="k4jWE-amrAnNTFHHnCet" name="异步任务-分发消息任务"><mxGraphModel dx="1423" dy="767" grid="1" gridSize="10" guides="1" tooltips="1" connect="1" arrows="1" fold="1" page="1" pageScale="1" pageWidth="850" pageHeight="1100" math="0" shadow="0"><root><mxCell id="0"/><mxCell id="1" parent="0"/><mxCell id="0fl1IppJ4GoYzok4VV-b-9" value="" style="edgeStyle=orthogonalEdgeStyle;rounded=0;jumpStyle=arc;orthogonalLoop=1;jettySize=auto;html=1;" parent="1" source="0fl1IppJ4GoYzok4VV-b-6" target="0fl1IppJ4GoYzok4VV-b-8" edge="1"><mxGeometry relative="1" as="geometry"/></mxCell><mxCell id="0fl1IppJ4GoYzok4VV-b-6" value="根据topic匹配topic filter" style="rounded=1;whiteSpace=wrap;html=1;" parent="1" vertex="1"><mxGeometry x="390" y="240" width="120" height="60" as="geometry"/></mxCell><mxCell id="0fl1IppJ4GoYzok4VV-b-11" value="" style="edgeStyle=orthogonalEdgeStyle;rounded=0;jumpStyle=arc;orthogonalLoop=1;jettySize=auto;html=1;" parent="1" source="0fl1IppJ4GoYzok4VV-b-8" target="0fl1IppJ4GoYzok4VV-b-10" edge="1"><mxGeometry relative="1" as="geometry"/></mxCell><mxCell id="0fl1IppJ4GoYzok4VV-b-8" value="根据topic filter匹配客户端" style="rounded=1;whiteSpace=wrap;html=1;" parent="1" vertex="1"><mxGeometry x="390" y="380" width="120" height="60" as="geometry"/></mxCell><mxCell id="XokIj6WxE-O7nKduak1s-2" value="" style="edgeStyle=orthogonalEdgeStyle;rounded=0;orthogonalLoop=1;jettySize=auto;html=1;" parent="1" source="0fl1IppJ4GoYzok4VV-b-10" target="XokIj6WxE-O7nKduak1s-1" edge="1"><mxGeometry relative="1" as="geometry"/></mxCell><mxCell id="0fl1IppJ4GoYzok4VV-b-10" value="批量插入send_message消息及其异步任务" style="rounded=1;whiteSpace=wrap;html=1;" parent="1" vertex="1"><mxGeometry x="390" y="520" width="120" height="60" as="geometry"/></mxCell><mxCell id="XokIj6WxE-O7nKduak1s-1" value="结束" style="rounded=1;whiteSpace=wrap;html=1;" parent="1" vertex="1"><mxGeometry x="390" y="660" width="120" height="60" as="geometry"/></mxCell></root></mxGraphModel></diagram><diagram id="K6ayVnm4Q7NiHEKUyF0k" name="出站消息"><mxGraphModel dx="1423" dy="767" grid="1" gridSize="10" guides="1" tooltips="1" connect="1" arrows="1" fold="1" page="1" pageScale="1" pageWidth="827" pageHeight="1169" math="0" shadow="0"><root><mxCell id="0"/><mxCell id="1" parent="0"/><mxCell id="GzOiODAGneL9vTj7HFSQ-1" value="客户端" style="swimlane;whiteSpace=wrap;html=1;" parent="1" vertex="1"><mxGeometry x="340" y="420" width="430" height="1560" as="geometry"/></mxCell><mxCell id="GzOiODAGneL9vTj7HFSQ-14" value="" style="edgeStyle=orthogonalEdgeStyle;rounded=0;orthogonalLoop=1;jettySize=auto;html=1;" parent="GzOiODAGneL9vTj7HFSQ-1" source="GzOiODAGneL9vTj7HFSQ-4" target="GzOiODAGneL9vTj7HFSQ-7" edge="1"><mxGeometry relative="1" as="geometry"/></mxCell><mxCell id="GzOiODAGneL9vTj7HFSQ-4" value="收到publish消息" style="rounded=1;whiteSpace=wrap;html=1;" parent="GzOiODAGneL9vTj7HFSQ-1" vertex="1"><mxGeometry x="170" y="50" width="120" height="60" as="geometry"/></mxCell><mxCell id="GzOiODAGneL9vTj7HFSQ-7" value="发送puback消息" style="rounded=1;whiteSpace=wrap;html=1;" parent="GzOiODAGneL9vTj7HFSQ-1" vertex="1"><mxGeometry x="170" y="200" width="120" height="60" as="geometry"/></mxCell><mxCell id="bqhSTv_wxcXyNgmSgenb-22" value="" style="edgeStyle=orthogonalEdgeStyle;rounded=0;orthogonalLoop=1;jettySize=auto;html=1;" parent="GzOiODAGneL9vTj7HFSQ-1" source="GzOiODAGneL9vTj7HFSQ-19" target="bqhSTv_wxcXyNgmSgenb-1" edge="1"><mxGeometry relative="1" as="geometry"/></mxCell><mxCell id="GzOiODAGneL9vTj7HFSQ-19" value="收到publish消息" style="whiteSpace=wrap;html=1;rounded=1;" parent="GzOiODAGneL9vTj7HFSQ-1" vertex="1"><mxGeometry x="170" y="540" width="120" height="60" as="geometry"/></mxCell><mxCell id="bqhSTv_wxcXyNgmSgenb-17" value="" style="edgeStyle=orthogonalEdgeStyle;rounded=0;orthogonalLoop=1;jettySize=auto;html=1;" parent="GzOiODAGneL9vTj7HFSQ-1" source="bqhSTv_wxcXyNgmSgenb-14" target="bqhSTv_wxcXyNgmSgenb-16" edge="1"><mxGeometry relative="1" as="geometry"/></mxCell><mxCell id="bqhSTv_wxcXyNgmSgenb-14" value="收到pubrel消息" style="whiteSpace=wrap;html=1;rounded=1;" parent="GzOiODAGneL9vTj7HFSQ-1" vertex="1"><mxGeometry x="170" y="1140" width="120" height="60" as="geometry"/></mxCell><mxCell id="bqhSTv_wxcXyNgmSgenb-16" value="发送pubcomp消息" style="whiteSpace=wrap;html=1;rounded=1;" parent="GzOiODAGneL9vTj7HFSQ-1" vertex="1"><mxGeometry x="170" y="1280" width="120" height="60" as="geometry"/></mxCell><mxCell id="bqhSTv_wxcXyNgmSgenb-1" value="发送pubrec消息" style="whiteSpace=wrap;html=1;rounded=1;" parent="GzOiODAGneL9vTj7HFSQ-1" vertex="1"><mxGeometry x="170" y="700" width="120" height="60" as="geometry"/></mxCell><mxCell id="GzOiODAGneL9vTj7HFSQ-2" value="服务端" style="swimlane;whiteSpace=wrap;html=1;" parent="1" vertex="1"><mxGeometry x="770" y="420" width="440" height="1560" as="geometry"/></mxCell><mxCell id="GzOiODAGneL9vTj7HFSQ-3" value="发送publish消息" style="rounded=1;whiteSpace=wrap;html=1;" parent="GzOiODAGneL9vTj7HFSQ-2" vertex="1"><mxGeometry x="150" y="50" width="120" height="60" as="geometry"/></mxCell><mxCell id="GzOiODAGneL9vTj7HFSQ-17" value="" style="edgeStyle=orthogonalEdgeStyle;rounded=0;orthogonalLoop=1;jettySize=auto;html=1;" parent="GzOiODAGneL9vTj7HFSQ-2" source="GzOiODAGneL9vTj7HFSQ-10" target="GzOiODAGneL9vTj7HFSQ-16" edge="1"><mxGeometry relative="1" as="geometry"/></mxCell><mxCell id="GzOiODAGneL9vTj7HFSQ-10" value="收到puback消息" style="rounded=1;whiteSpace=wrap;html=1;" parent="GzOiODAGneL9vTj7HFSQ-2" vertex="1"><mxGeometry x="150" y="200" width="120" height="60" as="geometry"/></mxCell><mxCell id="GzOiODAGneL9vTj7HFSQ-16" value="删除send_message对应记录" style="rounded=1;whiteSpace=wrap;html=1;" parent="GzOiODAGneL9vTj7HFSQ-2" vertex="1"><mxGeometry x="150" y="340" width="120" height="60" as="geometry"/></mxCell><mxCell id="GzOiODAGneL9vTj7HFSQ-18" value="发送publish消息" style="rounded=1;whiteSpace=wrap;html=1;" parent="GzOiODAGneL9vTj7HFSQ-2" vertex="1"><mxGeometry x="150" y="540" width="120" height="60" as="geometry"/></mxCell><mxCell id="bqhSTv_wxcXyNgmSgenb-13" value="发送pubrel消息" style="rounded=1;whiteSpace=wrap;html=1;" parent="GzOiODAGneL9vTj7HFSQ-2" vertex="1"><mxGeometry x="150" y="1140" width="120" height="60" as="geometry"/></mxCell><mxCell id="FQwdQN1lu7mIV-_rFc3X-2" value="" style="edgeStyle=orthogonalEdgeStyle;rounded=0;orthogonalLoop=1;jettySize=auto;html=1;" edge="1" parent="GzOiODAGneL9vTj7HFSQ-2" source="bqhSTv_wxcXyNgmSgenb-20" target="FQwdQN1lu7mIV-_rFc3X-1"><mxGeometry relative="1" as="geometry"/></mxCell><mxCell id="bqhSTv_wxcXyNgmSgenb-20" value="收到pubcomp消息" style="rounded=1;whiteSpace=wrap;html=1;" parent="GzOiODAGneL9vTj7HFSQ-2" vertex="1"><mxGeometry x="150" y="1280" width="120" height="60" as="geometry"/></mxCell><mxCell id="bqhSTv_wxcXyNgmSgenb-9" value="" style="edgeStyle=orthogonalEdgeStyle;rounded=0;orthogonalLoop=1;jettySize=auto;html=1;" parent="GzOiODAGneL9vTj7HFSQ-2" source="bqhSTv_wxcXyNgmSgenb-6" target="bqhSTv_wxcXyNgmSgenb-8" edge="1"><mxGeometry relative="1" as="geometry"/></mxCell><mxCell id="bqhSTv_wxcXyNgmSgenb-6" value="收到pubrec消息" style="rounded=1;whiteSpace=wrap;html=1;" parent="GzOiODAGneL9vTj7HFSQ-2" vertex="1"><mxGeometry x="150" y="700" width="120" height="60" as="geometry"/></mxCell><mxCell id="bqhSTv_wxcXyNgmSgenb-8" value="更新已收到pubrec状态&lt;div&gt;&lt;/div&gt;&lt;div&gt;&lt;/div&gt;" style="rounded=1;whiteSpace=wrap;html=1;" parent="GzOiODAGneL9vTj7HFSQ-2" vertex="1"><mxGeometry x="150" y="840" width="120" height="60" as="geometry"/></mxCell><mxCell id="FQwdQN1lu7mIV-_rFc3X-1" value="删除send_message对应记录" style="rounded=1;whiteSpace=wrap;html=1;" vertex="1" parent="GzOiODAGneL9vTj7HFSQ-2"><mxGeometry x="150" y="1410" width="120" height="60" as="geometry"/></mxCell><mxCell id="GzOiODAGneL9vTj7HFSQ-5" style="edgeStyle=orthogonalEdgeStyle;rounded=0;orthogonalLoop=1;jettySize=auto;html=1;exitX=0;exitY=0.5;exitDx=0;exitDy=0;" parent="1" source="GzOiODAGneL9vTj7HFSQ-3" target="GzOiODAGneL9vTj7HFSQ-4" edge="1"><mxGeometry relative="1" as="geometry"/></mxCell><mxCell id="GzOiODAGneL9vTj7HFSQ-15" value="qos=1" style="edgeLabel;html=1;align=center;verticalAlign=middle;resizable=0;points=[];" parent="GzOiODAGneL9vTj7HFSQ-5" vertex="1" connectable="0"><mxGeometry x="-0.5226" y="1" relative="1" as="geometry"><mxPoint as="offset"/></mxGeometry></mxCell><mxCell id="GzOiODAGneL9vTj7HFSQ-13" style="edgeStyle=orthogonalEdgeStyle;rounded=0;orthogonalLoop=1;jettySize=auto;html=1;entryX=0;entryY=0.5;entryDx=0;entryDy=0;" parent="1" source="GzOiODAGneL9vTj7HFSQ-7" target="GzOiODAGneL9vTj7HFSQ-10" edge="1"><mxGeometry relative="1" as="geometry"/></mxCell><mxCell id="GzOiODAGneL9vTj7HFSQ-20" value="" style="edgeStyle=orthogonalEdgeStyle;rounded=0;orthogonalLoop=1;jettySize=auto;html=1;" parent="1" source="GzOiODAGneL9vTj7HFSQ-18" target="GzOiODAGneL9vTj7HFSQ-19" edge="1"><mxGeometry relative="1" as="geometry"/></mxCell><mxCell id="GzOiODAGneL9vTj7HFSQ-21" value="qos=2" style="edgeLabel;html=1;align=center;verticalAlign=middle;resizable=0;points=[];" parent="GzOiODAGneL9vTj7HFSQ-20" vertex="1" connectable="0"><mxGeometry x="-0.5613" y="-2" relative="1" as="geometry"><mxPoint as="offset"/></mxGeometry></mxCell><mxCell id="bqhSTv_wxcXyNgmSgenb-15" style="edgeStyle=orthogonalEdgeStyle;rounded=0;orthogonalLoop=1;jettySize=auto;html=1;entryX=1;entryY=0.5;entryDx=0;entryDy=0;" parent="1" source="bqhSTv_wxcXyNgmSgenb-13" target="bqhSTv_wxcXyNgmSgenb-14" edge="1"><mxGeometry relative="1" as="geometry"/></mxCell><mxCell id="bqhSTv_wxcXyNgmSgenb-21" style="edgeStyle=orthogonalEdgeStyle;rounded=0;orthogonalLoop=1;jettySize=auto;html=1;entryX=0;entryY=0.5;entryDx=0;entryDy=0;" parent="1" source="bqhSTv_wxcXyNgmSgenb-16" target="bqhSTv_wxcXyNgmSgenb-20" edge="1"><mxGeometry relative="1" as="geometry"/></mxCell><mxCell id="bqhSTv_wxcXyNgmSgenb-7" style="edgeStyle=orthogonalEdgeStyle;rounded=0;orthogonalLoop=1;jettySize=auto;html=1;entryX=0;entryY=0.5;entryDx=0;entryDy=0;" parent="1" source="bqhSTv_wxcXyNgmSgenb-1" target="bqhSTv_wxcXyNgmSgenb-6" edge="1"><mxGeometry relative="1" as="geometry"/></mxCell></root></mxGraphModel></diagram><diagram id="4qeNa46pEVVLE3i9eAhn" name="异步任务-生成消息id"><mxGraphModel dx="1423" dy="767" grid="1" gridSize="10" guides="1" tooltips="1" connect="1" arrows="1" fold="1" page="1" pageScale="1" pageWidth="850" pageHeight="1100" math="0" shadow="0"><root><mxCell id="0"/><mxCell id="1" parent="0"/><mxCell id="yzGZU8PBOy7eUI11wV_d-3" value="" style="edgeStyle=orthogonalEdgeStyle;rounded=0;orthogonalLoop=1;jettySize=auto;html=1;" parent="1" source="yzGZU8PBOy7eUI11wV_d-1" target="yzGZU8PBOy7eUI11wV_d-2" edge="1"><mxGeometry relative="1" as="geometry"/></mxCell><mxCell id="yzGZU8PBOy7eUI11wV_d-1" value="开始" style="rounded=1;whiteSpace=wrap;html=1;" parent="1" vertex="1"><mxGeometry x="160" y="120" width="120" height="60" as="geometry"/></mxCell><mxCell id="yzGZU8PBOy7eUI11wV_d-5" value="是" style="edgeStyle=orthogonalEdgeStyle;rounded=0;orthogonalLoop=1;jettySize=auto;html=1;" parent="1" source="yzGZU8PBOy7eUI11wV_d-2" target="yzGZU8PBOy7eUI11wV_d-4" edge="1"><mxGeometry relative="1" as="geometry"/></mxCell><mxCell id="yzGZU8PBOy7eUI11wV_d-7" value="否" style="edgeStyle=orthogonalEdgeStyle;rounded=0;orthogonalLoop=1;jettySize=auto;html=1;" parent="1" source="yzGZU8PBOy7eUI11wV_d-2" target="yzGZU8PBOy7eUI11wV_d-6" edge="1"><mxGeometry relative="1" as="geometry"/></mxCell><mxCell id="yzGZU8PBOy7eUI11wV_d-2" value="查询消息是否存在" style="rounded=1;whiteSpace=wrap;html=1;" parent="1" vertex="1"><mxGeometry x="160" y="260" width="120" height="60" as="geometry"/></mxCell><mxCell id="yzGZU8PBOy7eUI11wV_d-11" value="qos=1" style="edgeStyle=orthogonalEdgeStyle;rounded=0;orthogonalLoop=1;jettySize=auto;html=1;" parent="1" source="yzGZU8PBOy7eUI11wV_d-4" target="yzGZU8PBOy7eUI11wV_d-10" edge="1"><mxGeometry relative="1" as="geometry"/></mxCell><mxCell id="7t1D-U24dZ-YpqizAq16-2" value="qos=2" style="edgeStyle=orthogonalEdgeStyle;rounded=0;orthogonalLoop=1;jettySize=auto;html=1;" parent="1" source="yzGZU8PBOy7eUI11wV_d-4" target="7t1D-U24dZ-YpqizAq16-1" edge="1"><mxGeometry relative="1" as="geometry"/></mxCell><mxCell id="yzGZU8PBOy7eUI11wV_d-4" value="根据qos等级去处理" style="rounded=1;whiteSpace=wrap;html=1;" parent="1" vertex="1"><mxGeometry x="160" y="400" width="120" height="60" as="geometry"/></mxCell><mxCell id="yzGZU8PBOy7eUI11wV_d-9" value="" style="edgeStyle=orthogonalEdgeStyle;rounded=0;orthogonalLoop=1;jettySize=auto;html=1;" parent="1" source="yzGZU8PBOy7eUI11wV_d-6" target="yzGZU8PBOy7eUI11wV_d-8" edge="1"><mxGeometry relative="1" as="geometry"/></mxCell><mxCell id="yzGZU8PBOy7eUI11wV_d-6" value="完成异步任务" style="rounded=1;whiteSpace=wrap;html=1;" parent="1" vertex="1"><mxGeometry x="360" y="260" width="120" height="60" as="geometry"/></mxCell><mxCell id="yzGZU8PBOy7eUI11wV_d-8" value="结束" style="rounded=1;whiteSpace=wrap;html=1;" parent="1" vertex="1"><mxGeometry x="560" y="260" width="120" height="60" as="geometry"/></mxCell><mxCell id="7t1D-U24dZ-YpqizAq16-5" value="是" style="edgeStyle=orthogonalEdgeStyle;rounded=0;orthogonalLoop=1;jettySize=auto;html=1;entryX=0.5;entryY=0;entryDx=0;entryDy=0;" parent="1" source="yzGZU8PBOy7eUI11wV_d-10" target="yzGZU8PBOy7eUI11wV_d-6" edge="1"><mxGeometry x="-0.9672" relative="1" as="geometry"><Array as="points"><mxPoint x="220" y="680"/><mxPoint x="110" y="680"/><mxPoint x="110" y="70"/><mxPoint x="420" y="70"/></Array><mxPoint as="offset"/></mxGeometry></mxCell><mxCell id="7t1D-U24dZ-YpqizAq16-7" value="否" style="edgeStyle=orthogonalEdgeStyle;rounded=0;orthogonalLoop=1;jettySize=auto;html=1;" parent="1" source="yzGZU8PBOy7eUI11wV_d-10" target="7t1D-U24dZ-YpqizAq16-6" edge="1"><mxGeometry relative="1" as="geometry"/></mxCell><mxCell id="yzGZU8PBOy7eUI11wV_d-10" value="是否收到puback" style="rounded=1;whiteSpace=wrap;html=1;" parent="1" vertex="1"><mxGeometry x="160" y="540" width="120" height="60" as="geometry"/></mxCell><mxCell id="KldHH4KO9R3ikEGegbNf-1" value="否" style="edgeStyle=orthogonalEdgeStyle;rounded=0;orthogonalLoop=1;jettySize=auto;html=1;endArrow=classic;endFill=1;" parent="1" source="7t1D-U24dZ-YpqizAq16-1" target="7t1D-U24dZ-YpqizAq16-6" edge="1"><mxGeometry relative="1" as="geometry"/></mxCell><mxCell id="KldHH4KO9R3ikEGegbNf-2" value="是" style="edgeStyle=orthogonalEdgeStyle;rounded=0;orthogonalLoop=1;jettySize=auto;html=1;endArrow=classic;endFill=1;" parent="1" source="7t1D-U24dZ-YpqizAq16-1" target="yzGZU8PBOy7eUI11wV_d-6" edge="1"><mxGeometry relative="1" as="geometry"/></mxCell><mxCell id="7t1D-U24dZ-YpqizAq16-1" value="是否收到pubrec报文" style="rounded=1;whiteSpace=wrap;html=1;" parent="1" vertex="1"><mxGeometry x="360" y="400" width="120" height="60" as="geometry"/></mxCell><mxCell id="7t1D-U24dZ-YpqizAq16-15" value="是" style="edgeStyle=orthogonalEdgeStyle;rounded=0;orthogonalLoop=1;jettySize=auto;html=1;endArrow=none;endFill=0;" parent="1" source="7t1D-U24dZ-YpqizAq16-6" edge="1"><mxGeometry x="-0.8333" relative="1" as="geometry"><mxPoint x="220" y="640" as="targetPoint"/><Array as="points"><mxPoint x="420" y="680"/><mxPoint x="220" y="680"/></Array><mxPoint as="offset"/></mxGeometry></mxCell><mxCell id="7t1D-U24dZ-YpqizAq16-18" value="否" style="edgeStyle=orthogonalEdgeStyle;rounded=0;orthogonalLoop=1;jettySize=auto;html=1;endArrow=classic;endFill=1;" parent="1" source="7t1D-U24dZ-YpqizAq16-6" target="7t1D-U24dZ-YpqizAq16-17" edge="1"><mxGeometry relative="1" as="geometry"/></mxCell><mxCell id="7t1D-U24dZ-YpqizAq16-6" value="是否为重复消息" style="rounded=1;whiteSpace=wrap;html=1;" parent="1" vertex="1"><mxGeometry x="360" y="540" width="120" height="60" as="geometry"/></mxCell><mxCell id="KldHH4KO9R3ikEGegbNf-5" value="" style="edgeStyle=orthogonalEdgeStyle;rounded=0;orthogonalLoop=1;jettySize=auto;html=1;endArrow=classic;endFill=1;" parent="1" source="7t1D-U24dZ-YpqizAq16-17" target="KldHH4KO9R3ikEGegbNf-4" edge="1"><mxGeometry relative="1" as="geometry"/></mxCell><mxCell id="7t1D-U24dZ-YpqizAq16-17" value="发送消息" style="rounded=1;whiteSpace=wrap;html=1;" parent="1" vertex="1"><mxGeometry x="560" y="540" width="120" height="60" as="geometry"/></mxCell><mxCell id="KldHH4KO9R3ikEGegbNf-7" style="edgeStyle=orthogonalEdgeStyle;rounded=0;orthogonalLoop=1;jettySize=auto;html=1;exitX=0;exitY=0;exitDx=0;exitDy=0;entryX=1;entryY=1;entryDx=0;entryDy=0;endArrow=classic;endFill=1;" parent="1" source="KldHH4KO9R3ikEGegbNf-4" target="yzGZU8PBOy7eUI11wV_d-6" edge="1"><mxGeometry relative="1" as="geometry"/></mxCell><mxCell id="KldHH4KO9R3ikEGegbNf-4" value="publish次数+1" style="rounded=1;whiteSpace=wrap;html=1;" parent="1" vertex="1"><mxGeometry x="560" y="400" width="120" height="60" as="geometry"/></mxCell></root></mxGraphModel></diagram><diagram id="x23kkCrnJz6gx71uB0ja" name="Page-5"><mxGraphModel dx="1423" dy="767" grid="1" gridSize="10" guides="1" tooltips="1" connect="1" arrows="1" fold="1" page="1" pageScale="1" pageWidth="850" pageHeight="1100" math="0" shadow="0"><root><mxCell id="0"/><mxCell id="1" parent="0"/><mxCell id="7nZQHhEoKNhi09y_6NCm-3" value="" style="edgeStyle=orthogonalEdgeStyle;rounded=0;orthogonalLoop=1;jettySize=auto;html=1;" edge="1" parent="1" source="7nZQHhEoKNhi09y_6NCm-1" target="7nZQHhEoKNhi09y_6NCm-2"><mxGeometry relative="1" as="geometry"/></mxCell><mxCell id="7nZQHhEoKNhi09y_6NCm-1" value="开始" style="rounded=1;whiteSpace=wrap;html=1;" vertex="1" parent="1"><mxGeometry x="350" y="70" width="120" height="60" as="geometry"/></mxCell><mxCell id="7nZQHhEoKNhi09y_6NCm-5" value="" style="edgeStyle=orthogonalEdgeStyle;rounded=0;orthogonalLoop=1;jettySize=auto;html=1;" edge="1" parent="1" source="7nZQHhEoKNhi09y_6NCm-2" target="7nZQHhEoKNhi09y_6NCm-4"><mxGeometry relative="1" as="geometry"/></mxCell><mxCell id="7nZQHhEoKNhi09y_6NCm-2" value="对消息数据行加锁" style="rounded=1;whiteSpace=wrap;html=1;" vertex="1" parent="1"><mxGeometry x="350" y="210" width="120" height="60" as="geometry"/></mxCell><mxCell id="7nZQHhEoKNhi09y_6NCm-7" value="" style="edgeStyle=orthogonalEdgeStyle;rounded=0;orthogonalLoop=1;jettySize=auto;html=1;" edge="1" parent="1" source="7nZQHhEoKNhi09y_6NCm-4" target="7nZQHhEoKNhi09y_6NCm-6"><mxGeometry relative="1" as="geometry"/></mxCell><mxCell id="7nZQHhEoKNhi09y_6NCm-4" value="根据目标客户端id生成消息唯一id" style="rounded=1;whiteSpace=wrap;html=1;" vertex="1" parent="1"><mxGeometry x="350" y="350" width="120" height="60" as="geometry"/></mxCell><mxCell id="7nZQHhEoKNhi09y_6NCm-9" value="" style="edgeStyle=orthogonalEdgeStyle;rounded=0;orthogonalLoop=1;jettySize=auto;html=1;" edge="1" parent="1" source="7nZQHhEoKNhi09y_6NCm-6" target="7nZQHhEoKNhi09y_6NCm-8"><mxGeometry relative="1" as="geometry"/></mxCell><mxCell id="7nZQHhEoKNhi09y_6NCm-6" value="更新消息id" style="rounded=1;whiteSpace=wrap;html=1;" vertex="1" parent="1"><mxGeometry x="350" y="490" width="120" height="60" as="geometry"/></mxCell><mxCell id="7nZQHhEoKNhi09y_6NCm-11" value="" style="edgeStyle=orthogonalEdgeStyle;rounded=0;orthogonalLoop=1;jettySize=auto;html=1;" edge="1" parent="1" source="7nZQHhEoKNhi09y_6NCm-8" target="7nZQHhEoKNhi09y_6NCm-10"><mxGeometry relative="1" as="geometry"/></mxCell><mxCell id="7nZQHhEoKNhi09y_6NCm-8" value="发送消息" style="rounded=1;whiteSpace=wrap;html=1;" vertex="1" parent="1"><mxGeometry x="350" y="630" width="120" height="60" as="geometry"/></mxCell><mxCell id="7nZQHhEoKNhi09y_6NCm-10" value="结束" style="rounded=1;whiteSpace=wrap;html=1;" vertex="1" parent="1"><mxGeometry x="350" y="770" width="120" height="60" as="geometry"/></mxCell></root></mxGraphModel></diagram></mxfile>